<!-- Sun/Moon icons (inline or fetched via URL) -->
<svg xmlns="http://www.w3.org/2000/svg" style="display:none">
<symbol id="icon-sun" viewBox="0 0 24 24">
<path d="M6.76 4.84l-1.8-1.79L3.17 4.84l1.79 1.79 1.8-1.79zM1 13h3v-2H1v2zm10 10h2v-3h-2v3zM4.84 19.36l1.8 1.8 1.79-1.8-1.79-1.79-1.8 1.79zM20 13h3v-2h-3v2zm-2.76 6.36l1.79 1.8 1.8-1.8-1.8-1.79-1.79 1.79zM13 1h-2v3h2V1zm6.66 3.05l-1.79-1.8-1.8 1.8 1.8 1.79 1.79-1.79zM12 6a6 6 0 100 12 6 6 0 000-12z"/>
</symbol>
<symbol id="icon-moon" viewBox="0 0 24 24">
<path d="M21 12.79A9 9 0 1111.21 3c.05 0 .1 0 .15.01A7 7 0 0021 12.79z"/>
</symbol>
</svg>