<?xml version="1.0" encoding="UTF-8"?>
<svg id="Layer_1" xmlns="http://www.w3.org/2000/svg" version="1.1" viewBox="0 0 1153 210">
  <!-- Generator: Adobe Illustrator 29.0.1, SVG Export Plug-In . SVG Version: 2.1.0 Build 192)  -->
  <defs>
    <style>
      .st0 {
        fill: #fff;
      }

      .st1 {
        fill: #74ac00;
      }
    </style>
  </defs>
  <g id="iNaturalist_Header">
    <g id="iNaturalist-Wordmark">
      <path id="i" class="st1" d="M41.3,77.6v131.4H5.9V80.5l35.4-2.8ZM32.1,2.5C43.7-.9,57.6-.2,59,.9l-.3.2c-3.2,2.6-10.5,7-10.8,28.1v.7c-.1,12.7-6.5,21.2-13.9,25.6-7.5,4.4-28.2,6.5-34,3.8,3.7-3.2,5.1-14,5.9-21.4l.3-3v-1c1.3-10.4,5.4-25.6,25.9-31.5Z"/>
      <path id="Combined-Shape" class="st0" d="M880.4,11v198.1h-32.4V13.8l32.4-2.8ZM699.2,78.1l-2.1,28.4c-5.7-1.3-9.8-1.8-14.2-1.8-9.3,0-18.8,3.4-26.8,15v89.4h-32.2V79.6l30-3.5v13.9c7.4-13.9,23.8-13.9,31.5-13.9,3.6,0,9.3.5,13.6,2.1ZM598.1,75v130.1l-28.9,2.8-1-13.5c-11.5,13.7-25.6,14.6-40.4,14.6-30.2,0-44.8-19.6-44.8-52.8v-78.1l32-3.1v75c0,21.6,7.4,30.2,23.5,30.2s27.6-7.8,27.6-26.1v-76c0,0,32.1-3.1,32.1-3.1ZM303.4,74c36.9,0,51.6,16.2,51.6,50.5v47c0,11.7.9,15.8,14.9,15.3l-1,20h-.5c-6,1.5-28.6,4.1-40.3-9.6-11.3,11-24.6,11.7-39.5,11.7-22.8,0-39.5-13.3-39.5-35.7s13.9-44.8,74.7-45.3v-5.2c-.2-17.4-4.3-23.6-24.1-23.6s-23.6,2.3-40.8,9.2l-2.1-23.1c13.3-7.4,32.6-11.3,46.7-11.3ZM763.4,74c36.9,0,51.6,16.2,51.6,50.5v47c0,11.7.9,15.8,14.9,15.3l-1,20h-.5c-6,1.5-28.6,4.1-40.3-9.6-11.3,11-24.6,11.7-39.5,11.7-22.8,0-39.5-13.3-39.5-35.7s13.9-44.8,74.7-45.3v-4.1c0-18.2-3.8-24.7-24.1-24.7s-23.6,2.3-40.8,9.2l-2.1-23.1c13.3-7.4,32.6-11.3,46.7-11.3ZM1012.2,74c10.2,0,24.7,1.8,35.1,6.2l-2,23.4c-13-4.1-23.7-5.4-31.6-5.4-15.4,0-21,6.8-21.1,13.9v.2c0,6.7,3.1,10.8,17.8,15.2l12,3.3c22.9,6.4,30,20.1,30,35.5s-14,42.5-52.2,42.5-25.2-2.6-37.4-7.7l-.5-24.7c16,6.2,26.2,7.7,35.6,7.7,16.6,0,22.7-8.2,22.7-16v-.4s0-.4,0-.4c-.2-5.9-3.2-11.3-18.3-16l-12.2-3.3c-19.9-5.7-27.8-16.5-28-33.7,0-21.4,15.3-40.4,50.2-40.4ZM107.7,26l89.7,131.8V26h31.3v182.8h-36.5L102.6,76.2v132.6h-31.6V26h36.7ZM939.4,77.5v130.9h-32.2V80.4l32.2-2.8ZM423.4,38v41.1h36l-1.3,24.7h-34.7v56.5c0,17,8.4,21.6,19.1,21.6s11-.8,19.9-3.9l-.3,23.9c-9.7,4.4-20.2,6.4-28.1,6.4-23.2,0-42.6-9-42.6-44.7v-59.9h-16.6v-22.4l17.4-2.6-.2-38,31.3-2.9ZM1113.7,38l-.2,41.1h36l-1.3,24.7h-34.7v56.5c0,17,8.4,21.6,19.1,21.6s11-.8,19.9-3.9l-.3,23.9c-9.7,4.4-20.2,6.4-28.1,6.4-23.2,0-42.6-9-42.6-44.7v-59.9h-16.6v-22.4l17.4-2.6v-38s31.3-2.9,31.3-2.9ZM280.2,170c0,9,7.2,15.7,20,15.7s17.7-3.1,25.4-9.7v-26.4c-35.7-.8-45.4,10-45.4,20.5ZM740.2,170c0,9,7.2,15.7,20,15.7s17.7-3.1,25.4-9.7v-26.4c-35.7-.8-45.4,10-45.4,20.5ZM923.1,17c12.4,0,19.9,8.2,19.9,19.3s-8.3,19.1-20.1,19.1-19.9-8.2-19.9-19.3,8.3-19.1,20.1-19.1Z"/>
    </g>
  </g>
</svg>